<?xml version="1.0" encoding="UTF-8" standalone="no"?>
<!-- Created with Inkscape (http://www.inkscape.org/) -->

<svg
   version="1.1"
   id="svg1316"
   width="666.66669"
   height="666.66669"
   viewBox="0 0 666.66669 666.66669"
   sodipodi:docname="logo.svg"
   inkscape:version="1.2.1 (9c6d41e410, 2022-07-14)"
   xmlns:inkscape="http://www.inkscape.org/namespaces/inkscape"
   xmlns:sodipodi="http://sodipodi.sourceforge.net/DTD/sodipodi-0.dtd"
   xmlns="http://www.w3.org/2000/svg"
   xmlns:svg="http://www.w3.org/2000/svg">
  <defs
     id="defs1320">
    <radialGradient
       fx="0"
       fy="0"
       cx="0"
       cy="0"
       r="1"
       gradientUnits="userSpaceOnUse"
       gradientTransform="matrix(402.02,0,0,-402.02,250,250)"
       spreadMethod="pad"
       id="radialGradient1336">
      <stop
         style="stop-opacity:1;stop-color:#4a1848"
         offset="0"
         id="stop1328" />
      <stop
         style="stop-opacity:1;stop-color:#4a1848"
         offset="0.0572111"
         id="stop1330" />
      <stop
         style="stop-opacity:1;stop-color:#20162a"
         offset="0.623868"
         id="stop1332" />
      <stop
         style="stop-opacity:1;stop-color:#20162a"
         offset="1"
         id="stop1334" />
    </radialGradient>
    <clipPath
       clipPathUnits="userSpaceOnUse"
       id="clipPath1346">
      <path
         d="m 2186.96,2562.16 c 60.32,-60.33 158.13,-60.33 218.46,0 v 0 c 60.32,60.3 60.32,158.12 0,218.43 l -467.76,467.77 c -60.33,60.32 -158.14,60.33 -218.46,0 v 0 c -60.32,-60.31 -60.31,-158.14 0.01,-218.46 l 276.69,-276.01 z"
         id="path1344" />
    </clipPath>
    <radialGradient
       fx="0"
       fy="0"
       cx="0"
       cy="0"
       r="1"
       gradientUnits="userSpaceOnUse"
       gradientTransform="matrix(858.697,0,0,-858.697,1702.49,3177.85)"
       spreadMethod="pad"
       id="radialGradient1354">
      <stop
         style="stop-opacity:1;stop-color:#3771be"
         offset="0"
         id="stop1348" />
      <stop
         style="stop-opacity:1;stop-color:#3771be"
         offset="0.166667"
         id="stop1350" />
      <stop
         style="stop-opacity:1;stop-color:#5fc8a5"
         offset="1"
         id="stop1352" />
    </radialGradient>
    <clipPath
       clipPathUnits="userSpaceOnUse"
       id="clipPath1364">
      <path
         d="m 2405.42,3716.4 c -60.33,60.33 -158.14,60.31 -218.46,0 L 1719.2,3248.63 c -59.07,-59.05 -62.76,-151.49 -6.16,-212.05 l 2.39,-2.55 3.11,-3.11 c 0.23,-0.23 0.43,-0.49 0.66,-0.72 0.25,-0.26 0.53,-0.46 0.78,-0.72 l 275.92,-275.59 c -148.57,148.57 50.9,385.43 50.9,385.43 l -0.04,-0.01 358.66,358.63 c 60.3,60.33 60.32,158.14 0,218.46 z"
         id="path1362" />
    </clipPath>
    <linearGradient
       x1="0"
       y1="0"
       x2="1"
       y2="0"
       gradientUnits="userSpaceOnUse"
       gradientTransform="matrix(1086.74,0,0,-1086.74,1832.86,3257.76)"
       spreadMethod="pad"
       id="linearGradient1372">
      <stop
         style="stop-opacity:1;stop-color:#5fc8a5"
         offset="0"
         id="stop1366" />
      <stop
         style="stop-opacity:1;stop-color:#3771be"
         offset="0.833333"
         id="stop1368" />
      <stop
         style="stop-opacity:1;stop-color:#3771be"
         offset="1"
         id="stop1370" />
    </linearGradient>
    <clipPath
       clipPathUnits="userSpaceOnUse"
       id="clipPath1382">
      <path
         d="m 2785.08,3139.99 c -60.34,60.32 -158.14,60.32 -218.47,0 v 0 c -60.31,-60.32 -60.31,-158.13 0,-218.45 l 467.77,-467.77 c 60.33,-60.32 158.14,-60.33 218.44,0 v 0 c 60.34,60.32 60.32,158.13 0,218.47 l -276.7,276.01 z"
         id="path1380" />
    </clipPath>
    <linearGradient
       x1="0"
       y1="0"
       x2="1"
       y2="0"
       gradientUnits="userSpaceOnUse"
       gradientTransform="matrix(-776.699,0,0,776.699,3298.08,2796.87)"
       spreadMethod="pad"
       id="linearGradient1390">
      <stop
         style="stop-opacity:1;stop-color:#a21554"
         offset="0"
         id="stop1384" />
      <stop
         style="stop-opacity:1;stop-color:#a21554"
         offset="0.00955605"
         id="stop1386" />
      <stop
         style="stop-opacity:1;stop-color:#f28114"
         offset="1"
         id="stop1388" />
    </linearGradient>
    <clipPath
       clipPathUnits="userSpaceOnUse"
       id="clipPath1400">
      <path
         d="m 2566.61,1985.74 c 60.33,-60.32 158.13,-60.31 218.47,0 l 467.74,467.76 c 59.07,59.06 62.78,151.5 6.17,212.05 l -2.39,2.56 -3.11,3.11 c -0.23,0.24 -0.42,0.49 -0.67,0.72 -0.23,0.26 -0.53,0.46 -0.78,0.71 l -275.92,275.6 c 148.59,-148.57 -50.89,-385.44 -50.89,-385.44 l 0.03,0.02 -358.64,-358.65 c -60.32,-60.31 -60.32,-158.13 -0.01,-218.44 z"
         id="path1398" />
    </clipPath>
    <linearGradient
       x1="0"
       y1="0"
       x2="1"
       y2="0"
       gradientUnits="userSpaceOnUse"
       gradientTransform="matrix(-1086.74,0,0,1086.74,3139.17,2444.37)"
       spreadMethod="pad"
       id="linearGradient1408">
      <stop
         style="stop-opacity:1;stop-color:#f28114"
         offset="0"
         id="stop1402" />
      <stop
         style="stop-opacity:1;stop-color:#a21554"
         offset="0.990444"
         id="stop1404" />
      <stop
         style="stop-opacity:1;stop-color:#a21554"
         offset="1"
         id="stop1406" />
    </linearGradient>
  </defs>
  <sodipodi:namedview
     id="namedview1318"
     pagecolor="#ffffff"
     bordercolor="#000000"
     borderopacity="0.25"
     inkscape:showpageshadow="2"
     inkscape:pageopacity="0.0"
     inkscape:pagecheckerboard="0"
     inkscape:deskcolor="#d1d1d1"
     showgrid="false"
     inkscape:zoom="0.60033364"
     inkscape:cx="93.281462"
     inkscape:cy="346.474"
     inkscape:window-width="1311"
     inkscape:window-height="744"
     inkscape:window-x="55"
     inkscape:window-y="24"
     inkscape:window-maximized="1"
     inkscape:current-layer="g1324">
    <inkscape:page
       x="0"
       y="0"
       id="page1322"
       width="666.66669"
       height="666.66669"
       inkscape:export-filename="logo.png"
       inkscape:export-xdpi="96"
       inkscape:export-ydpi="96" />
  </sodipodi:namedview>
  <g
     id="g1324"
     inkscape:groupmode="layer"
     inkscape:label="Page 1"
     transform="matrix(1.3333333,0,0,-1.3333333,0,666.66667)">
    <g
       id="g1599"
       transform="matrix(2.5437843,0,0,2.5437843,-384.11567,-474.27674)">
      <g
         id="g1340"
         transform="scale(0.1)">
        <g
           id="g1342"
           clip-path="url(#clipPath1346)">
          <path
             d="m 2186.96,2562.16 c 60.32,-60.33 158.13,-60.33 218.46,0 v 0 c 60.32,60.3 60.32,158.12 0,218.43 l -467.76,467.77 c -60.33,60.32 -158.14,60.33 -218.46,0 v 0 c -60.32,-60.31 -60.31,-158.14 0.01,-218.46 l 276.69,-276.01 191.06,-191.73"
             style="fill:url(#radialGradient1354);fill-opacity:1;fill-rule:nonzero;stroke:none"
             id="path1356" />
        </g>
      </g>
      <g
         id="g1358"
         transform="scale(0.1)">
        <g
           id="g1360"
           clip-path="url(#clipPath1364)">
          <path
             d="m 2405.42,3716.4 c -60.33,60.33 -158.14,60.31 -218.46,0 L 1719.2,3248.63 c -59.07,-59.05 -62.76,-151.49 -6.16,-212.05 l 2.39,-2.55 3.11,-3.11 c 0.23,-0.23 0.43,-0.49 0.66,-0.72 0.25,-0.26 0.53,-0.46 0.78,-0.72 l 275.92,-275.59 c -148.57,148.57 50.9,385.43 50.9,385.43 l -0.04,-0.01 358.66,358.63 c 60.3,60.33 60.32,158.14 0,218.46"
             style="fill:url(#linearGradient1372);fill-opacity:1;fill-rule:nonzero;stroke:none"
             id="path1374" />
        </g>
      </g>
      <g
         id="g1376"
         transform="scale(0.1)">
        <g
           id="g1378"
           clip-path="url(#clipPath1382)">
          <path
             d="m 2785.08,3139.99 c -60.34,60.32 -158.14,60.32 -218.47,0 v 0 c -60.31,-60.32 -60.31,-158.13 0,-218.45 l 467.77,-467.77 c 60.33,-60.32 158.14,-60.33 218.44,0 v 0 c 60.34,60.32 60.32,158.13 0,218.47 l -276.7,276.01 -191.04,191.74"
             style="fill:url(#linearGradient1390);fill-opacity:1;fill-rule:nonzero;stroke:none"
             id="path1392" />
        </g>
      </g>
      <g
         id="g1394"
         transform="scale(0.1)">
        <g
           id="g1396"
           clip-path="url(#clipPath1400)">
          <path
             d="m 2566.61,1985.74 c 60.33,-60.32 158.13,-60.31 218.47,0 l 467.74,467.76 c 59.07,59.06 62.78,151.5 6.17,212.05 l -2.39,2.56 -3.11,3.11 c -0.23,0.24 -0.42,0.49 -0.67,0.72 -0.23,0.26 -0.53,0.46 -0.78,0.71 l -275.92,275.6 c 148.59,-148.57 -50.89,-385.44 -50.89,-385.44 l 0.03,0.02 -358.64,-358.65 c -60.32,-60.31 -60.32,-158.13 -0.01,-218.44"
             style="fill:url(#linearGradient1408);fill-opacity:1;fill-rule:nonzero;stroke:none"
             id="path1410" />
        </g>
      </g>
      <path
         d="m 239.037,204.732 c -2.466,-7.883 -10.853,-12.275 -18.738,-9.809 v 0 c -7.881,2.465 -12.273,10.855 -9.808,18.737 l 48.382,152.08 c 2.467,7.883 10.857,12.276 18.74,9.81 v 0 c 7.881,-2.465 12.274,-10.856 9.809,-18.738 l -48.385,-152.08"
         style="fill:#cccccc;fill-opacity:1;fill-rule:nonzero;stroke:none;stroke-width:0.1"
         id="path1412" />
    </g>
  </g>
</svg>
