<?xml version="1.0" encoding="UTF-8"?>
<svg id="Layer_8_copy" data-name="Layer 8 copy" xmlns="http://www.w3.org/2000/svg" xmlns:xlink="http://www.w3.org/1999/xlink" viewBox="0 0 384.42 380.99">
  <defs>
    <style>
      .cls-1 {
        fill: url(#linear-gradient-2);
      }

      .cls-2 {
        fill: url(#linear-gradient);
        stroke: #7c7e7f;
        stroke-miterlimit: 10;
        stroke-width: 8px;
      }

      .cls-3 {
        fill: url(#radial-gradient);
      }

      .cls-4 {
        fill: url(#linear-gradient-5);
      }

      .cls-5 {
        fill: url(#linear-gradient-3);
      }

      .cls-6 {
        fill: url(#linear-gradient-4);
      }
    </style>
    <linearGradient id="linear-gradient" x1="192.63" y1="117.86" x2="192.63" y2="262.91" gradientTransform="translate(-78.2 191.97) rotate(-45)" gradientUnits="userSpaceOnUse">
      <stop offset="0" stop-color="#a8a8a8"/>
      <stop offset=".16" stop-color="#959596"/>
      <stop offset=".36" stop-color="#868889"/>
      <stop offset=".59" stop-color="#7e8081"/>
      <stop offset=".99" stop-color="#7c7e7f"/>
    </linearGradient>
    <linearGradient id="linear-gradient-2" x1="226.2" y1="256.89" x2="226.2" y2="123.89" gradientUnits="userSpaceOnUse">
      <stop offset="0" stop-color="#a8a8a8"/>
      <stop offset=".27" stop-color="#939494"/>
      <stop offset=".57" stop-color="#828384"/>
      <stop offset=".8" stop-color="#7c7e7f"/>
    </linearGradient>
    <linearGradient id="linear-gradient-3" x1="1387.41" y1="346.11" x2="1625.01" y2="346.11" gradientTransform="translate(-1387.01 -84.14)" gradientUnits="userSpaceOnUse">
      <stop offset="0" stop-color="#8c0053"/>
      <stop offset=".14" stop-color="#8f0651"/>
      <stop offset=".32" stop-color="#99174c"/>
      <stop offset=".53" stop-color="#a83345"/>
      <stop offset=".76" stop-color="#bf5b3b"/>
      <stop offset="1" stop-color="#db8d2e"/>
    </linearGradient>
    <linearGradient id="linear-gradient-4" x1="1436.02" y1="238.28" x2="1768.47" y2="238.28" gradientTransform="translate(-1387.01 -84.14)" gradientUnits="userSpaceOnUse">
      <stop offset="0" stop-color="#db8d2e"/>
      <stop offset=".24" stop-color="#bf5b3b"/>
      <stop offset=".47" stop-color="#a83345"/>
      <stop offset=".68" stop-color="#99174c"/>
      <stop offset=".86" stop-color="#8f0651"/>
      <stop offset=".99" stop-color="#8c0053"/>
    </linearGradient>
    <radialGradient id="radial-gradient" cx="-40.62" cy="178.69" fx="-40.62" fy="178.69" r="262.83" gradientTransform="translate(334.68) rotate(-180) scale(1 -1)" gradientUnits="userSpaceOnUse">
      <stop offset=".17" stop-color="#4674b5"/>
      <stop offset=".33" stop-color="#4877b5"/>
      <stop offset=".49" stop-color="#4e83b5"/>
      <stop offset=".66" stop-color="#5997b6"/>
      <stop offset=".82" stop-color="#68b4b7"/>
      <stop offset=".98" stop-color="#7bd7b8"/>
      <stop offset="1" stop-color="#7edcb9"/>
    </radialGradient>
    <linearGradient id="linear-gradient-5" x1="-.71" y1="154.23" x2="331.92" y2="154.23" gradientTransform="translate(334.68) rotate(-180) scale(1 -1)" gradientUnits="userSpaceOnUse">
      <stop offset="0" stop-color="#7edcb9"/>
      <stop offset=".02" stop-color="#7bd7b8"/>
      <stop offset=".18" stop-color="#68b4b7"/>
      <stop offset=".34" stop-color="#5997b6"/>
      <stop offset=".51" stop-color="#4e83b5"/>
      <stop offset=".67" stop-color="#4877b5"/>
      <stop offset=".83" stop-color="#4674b5"/>
    </linearGradient>
  </defs>
  <g id="Layer_9_copy" data-name="Layer 9 copy">
    <rect class="cls-2" x="141.35" y="139.1" width="102.57" height="102.57" transform="translate(191.04 -80.45) rotate(45)"/>
  </g>
  <polygon class="cls-1" points="192.63 256.89 192.63 123.89 259.76 191.02 192.63 256.89"/>
  <g id="Layer_7_copy" data-name="Layer 7 copy">
    <path class="cls-5" d="M157.33,366.94c18.46,18.45,48.38,18.45,66.83,0h0c18.45-18.45,18.45-48.37,0-66.82L81.06,157.01c-18.46-18.45-48.38-18.46-66.83,0h0c-18.46,18.45-18.45,48.38,0,66.83l84.65,84.44,58.44,58.65Z"/>
  </g>
  <path class="cls-6" d="M224.16,13.84c-18.46-18.45-48.37-18.45-66.83,0L14.24,156.93c-18.07,18.07-19.2,46.35-1.89,64.87l.73,.78,.95,.95c.07,.07,.13,.15,.2,.22,.07,.08,.16,.14,.24,.22l84.41,84.31c-45.45-45.45,15.57-117.91,15.57-117.91h0s109.71-109.71,109.71-109.71c18.45-18.45,18.45-48.37,0-66.82Z"/>
  <g id="Layer_4_copy" data-name="Layer 4 copy">
    <path class="cls-3" d="M227,367.14c-18.46,18.47-48.4,18.47-66.86,0h0c-18.46-18.46-18.46-48.4,0-66.86l143.17-143.18c18.46-18.46,48.4-18.47,66.86,0h0c18.47,18.46,18.46,48.4,0,66.87l-84.69,84.48-58.48,58.68Z"/>
  </g>
  <path class="cls-4" d="M160.14,13.85c18.47-18.47,48.4-18.46,66.87,0l143.17,143.17c18.08,18.08,19.21,46.37,1.89,64.91l-.73,.78-.95,.95c-.07,.07-.13,.15-.2,.22-.07,.08-.16,.14-.24,.22l-84.46,84.35c45.47-45.48-15.58-117.97-15.58-117.97h.01s-109.78-109.77-109.78-109.77c-18.46-18.47-18.46-48.4,0-66.86Z"/>
</svg>